# xmcd
#
# Track frame offsets: 
#        150
#        16834
#        35274
#        54378
#        77796
#        95751
#        113137
#        131143
#        147668
#        167348
#
# Disc length: 2431 seconds
#
# Revision: 0
# Processed by: cddbd v1.5.2PL0 Copyright (c) Steve Scherf et al.
# Submitted via: ExactAudioCopy v0.99pb5
#
DISCID=80097d0a
DTITLE=Ckarence Bucaro - New Orleans
DYEAR=2009
DGENRE=Blues
TTITLE0=Light in Your Eyes
TTITLE1=Matters of the Heart
TTITLE2=On My Coast
TTITLE3=Unfulfilled Love
TTITLE4=Standin on Old Grounds
TTITLE5=The Other End
TTITLE6=It's Only You Tonight
TTITLE7=Let Me Let Go of You
TTITLE8=Abandoned Mine
TTITLE9=Red Herring
EXTD=
EXTT0=
EXTT1=
EXTT2=
EXTT3=
EXTT4=
EXTT5=
EXTT6=
EXTT7=
EXTT8=
EXTT9=
PLAYORDER=
